<mxfile host="app.diagrams.net" modified="2024-02-07T12:57:55.751Z" agent="Mozilla/5.0 (Windows NT 10.0; Win64; x64) AppleWebKit/537.36 (KHTML, like Gecko) Chrome/120.0.0.0 Safari/537.36 OPR/106.0.0.0" etag="upcDxMHEk-XaE2amraSL" version="23.1.1" type="github">
  <diagram name="Page-1" id="Cdu4vGXCdzg4rgVNtFUz">
    <mxGraphModel dx="1971" dy="637" grid="1" gridSize="10" guides="1" tooltips="1" connect="1" arrows="1" fold="1" page="1" pageScale="1" pageWidth="850" pageHeight="1100" math="0" shadow="0">
      <root>
        <mxCell id="0" />
        <mxCell id="1" parent="0" />
        <mxCell id="pc25XRSb5LT2gWaU4bw4-1" value="" style="ellipse;whiteSpace=wrap;html=1;aspect=fixed;" vertex="1" parent="1">
          <mxGeometry x="40" y="40" width="80" height="80" as="geometry" />
        </mxCell>
        <mxCell id="pc25XRSb5LT2gWaU4bw4-2" value="" style="ellipse;whiteSpace=wrap;html=1;aspect=fixed;" vertex="1" parent="1">
          <mxGeometry x="-120" y="40" width="80" height="80" as="geometry" />
        </mxCell>
        <mxCell id="pc25XRSb5LT2gWaU4bw4-3" value="" style="endArrow=classic;html=1;rounded=0;exitX=1;exitY=0.5;exitDx=0;exitDy=0;" edge="1" parent="1" source="pc25XRSb5LT2gWaU4bw4-13">
          <mxGeometry width="50" height="50" relative="1" as="geometry">
            <mxPoint x="-160" y="80" as="sourcePoint" />
            <mxPoint x="-120" y="80" as="targetPoint" />
          </mxGeometry>
        </mxCell>
        <mxCell id="pc25XRSb5LT2gWaU4bw4-4" value="" style="endArrow=classic;html=1;rounded=0;entryX=0;entryY=0.5;entryDx=0;entryDy=0;exitX=1;exitY=0.5;exitDx=0;exitDy=0;" edge="1" parent="1" source="pc25XRSb5LT2gWaU4bw4-2" target="pc25XRSb5LT2gWaU4bw4-1">
          <mxGeometry width="50" height="50" relative="1" as="geometry">
            <mxPoint x="-30" y="110" as="sourcePoint" />
            <mxPoint x="90" y="110" as="targetPoint" />
          </mxGeometry>
        </mxCell>
        <mxCell id="pc25XRSb5LT2gWaU4bw4-5" value="&lt;b style=&quot;font-size: 15px;&quot;&gt;S39&lt;/b&gt;" style="text;html=1;strokeColor=none;fillColor=none;align=center;verticalAlign=middle;whiteSpace=wrap;rounded=0;fontSize=15;" vertex="1" parent="1">
          <mxGeometry x="-110" y="65" width="60" height="30" as="geometry" />
        </mxCell>
        <mxCell id="pc25XRSb5LT2gWaU4bw4-6" value="&lt;b&gt;&lt;font style=&quot;font-size: 15px;&quot;&gt;S40&lt;/font&gt;&lt;/b&gt;" style="text;html=1;strokeColor=none;fillColor=none;align=center;verticalAlign=middle;whiteSpace=wrap;rounded=0;" vertex="1" parent="1">
          <mxGeometry x="50" y="65" width="60" height="30" as="geometry" />
        </mxCell>
        <mxCell id="pc25XRSb5LT2gWaU4bw4-7" value="U" style="text;html=1;strokeColor=none;fillColor=none;align=center;verticalAlign=middle;whiteSpace=wrap;rounded=0;fontSize=15;" vertex="1" parent="1">
          <mxGeometry x="-50" y="47.5" width="105" height="30" as="geometry" />
        </mxCell>
        <mxCell id="pc25XRSb5LT2gWaU4bw4-8" value="" style="ellipse;whiteSpace=wrap;html=1;aspect=fixed;" vertex="1" parent="1">
          <mxGeometry x="200" y="40" width="80" height="80" as="geometry" />
        </mxCell>
        <mxCell id="pc25XRSb5LT2gWaU4bw4-9" value="" style="ellipse;whiteSpace=wrap;html=1;aspect=fixed;" vertex="1" parent="1">
          <mxGeometry x="207.5" y="47.5" width="65" height="65" as="geometry" />
        </mxCell>
        <mxCell id="pc25XRSb5LT2gWaU4bw4-10" value="" style="endArrow=classic;html=1;rounded=0;entryX=0;entryY=0.5;entryDx=0;entryDy=0;exitX=1;exitY=0.5;exitDx=0;exitDy=0;" edge="1" parent="1" target="pc25XRSb5LT2gWaU4bw4-8">
          <mxGeometry width="50" height="50" relative="1" as="geometry">
            <mxPoint x="120" y="80" as="sourcePoint" />
            <mxPoint x="250" y="110" as="targetPoint" />
          </mxGeometry>
        </mxCell>
        <mxCell id="pc25XRSb5LT2gWaU4bw4-11" value="&lt;b&gt;&lt;font style=&quot;font-size: 15px;&quot;&gt;S41&lt;/font&gt;&lt;/b&gt;" style="text;html=1;strokeColor=none;fillColor=none;align=center;verticalAlign=middle;whiteSpace=wrap;rounded=0;" vertex="1" parent="1">
          <mxGeometry x="210" y="65" width="60" height="30" as="geometry" />
        </mxCell>
        <mxCell id="pc25XRSb5LT2gWaU4bw4-12" value="T" style="text;html=1;strokeColor=none;fillColor=none;align=center;verticalAlign=middle;whiteSpace=wrap;rounded=0;fontSize=15;" vertex="1" parent="1">
          <mxGeometry x="109" y="47.5" width="105" height="30" as="geometry" />
        </mxCell>
        <mxCell id="pc25XRSb5LT2gWaU4bw4-13" value="" style="ellipse;whiteSpace=wrap;html=1;aspect=fixed;" vertex="1" parent="1">
          <mxGeometry x="-280" y="40" width="80" height="80" as="geometry" />
        </mxCell>
        <mxCell id="pc25XRSb5LT2gWaU4bw4-14" value="" style="endArrow=classic;html=1;rounded=0;entryX=0;entryY=0.5;entryDx=0;entryDy=0;" edge="1" parent="1" target="pc25XRSb5LT2gWaU4bw4-13">
          <mxGeometry width="50" height="50" relative="1" as="geometry">
            <mxPoint x="-360" y="80" as="sourcePoint" />
            <mxPoint x="-240" y="80" as="targetPoint" />
          </mxGeometry>
        </mxCell>
        <mxCell id="pc25XRSb5LT2gWaU4bw4-15" value="&lt;b style=&quot;font-size: 15px;&quot;&gt;S38&lt;/b&gt;" style="text;html=1;strokeColor=none;fillColor=none;align=center;verticalAlign=middle;whiteSpace=wrap;rounded=0;fontSize=15;" vertex="1" parent="1">
          <mxGeometry x="-270" y="65" width="60" height="30" as="geometry" />
        </mxCell>
        <mxCell id="pc25XRSb5LT2gWaU4bw4-16" value="P" style="text;html=1;strokeColor=none;fillColor=none;align=center;verticalAlign=middle;whiteSpace=wrap;rounded=0;fontSize=15;" vertex="1" parent="1">
          <mxGeometry x="-210" y="47.5" width="105" height="30" as="geometry" />
        </mxCell>
        <mxCell id="pc25XRSb5LT2gWaU4bw4-29" value="" style="ellipse;whiteSpace=wrap;html=1;aspect=fixed;" vertex="1" parent="1">
          <mxGeometry x="-440" y="40" width="80" height="80" as="geometry" />
        </mxCell>
        <mxCell id="pc25XRSb5LT2gWaU4bw4-31" value="&lt;b style=&quot;font-size: 15px;&quot;&gt;S37&lt;/b&gt;" style="text;html=1;strokeColor=none;fillColor=none;align=center;verticalAlign=middle;whiteSpace=wrap;rounded=0;fontSize=15;" vertex="1" parent="1">
          <mxGeometry x="-430" y="65" width="60" height="30" as="geometry" />
        </mxCell>
        <mxCell id="pc25XRSb5LT2gWaU4bw4-32" value="N" style="text;html=1;strokeColor=none;fillColor=none;align=center;verticalAlign=middle;whiteSpace=wrap;rounded=0;fontSize=15;" vertex="1" parent="1">
          <mxGeometry x="-370" y="47.5" width="105" height="30" as="geometry" />
        </mxCell>
        <mxCell id="pc25XRSb5LT2gWaU4bw4-66" value="" style="endArrow=classic;html=1;rounded=0;entryX=0;entryY=0.5;entryDx=0;entryDy=0;" edge="1" parent="1" target="pc25XRSb5LT2gWaU4bw4-29">
          <mxGeometry width="50" height="50" relative="1" as="geometry">
            <mxPoint x="-520" y="80" as="sourcePoint" />
            <mxPoint x="-400" y="80" as="targetPoint" />
          </mxGeometry>
        </mxCell>
        <mxCell id="pc25XRSb5LT2gWaU4bw4-67" value="" style="ellipse;whiteSpace=wrap;html=1;aspect=fixed;" vertex="1" parent="1">
          <mxGeometry x="-600" y="40" width="80" height="80" as="geometry" />
        </mxCell>
        <mxCell id="pc25XRSb5LT2gWaU4bw4-68" value="" style="endArrow=classic;html=1;rounded=0;entryX=0;entryY=0.5;entryDx=0;entryDy=0;" edge="1" parent="1">
          <mxGeometry width="50" height="50" relative="1" as="geometry">
            <mxPoint x="-680" y="80" as="sourcePoint" />
            <mxPoint x="-600" y="80" as="targetPoint" />
          </mxGeometry>
        </mxCell>
        <mxCell id="pc25XRSb5LT2gWaU4bw4-69" value="&lt;b style=&quot;font-size: 15px;&quot;&gt;S0&lt;/b&gt;" style="text;html=1;strokeColor=none;fillColor=none;align=center;verticalAlign=middle;whiteSpace=wrap;rounded=0;fontSize=15;" vertex="1" parent="1">
          <mxGeometry x="-590" y="65" width="60" height="30" as="geometry" />
        </mxCell>
        <mxCell id="pc25XRSb5LT2gWaU4bw4-70" value="I" style="text;html=1;strokeColor=none;fillColor=none;align=center;verticalAlign=middle;whiteSpace=wrap;rounded=0;fontSize=15;" vertex="1" parent="1">
          <mxGeometry x="-530" y="47.5" width="105" height="30" as="geometry" />
        </mxCell>
        <mxCell id="pc25XRSb5LT2gWaU4bw4-71" value="" style="ellipse;whiteSpace=wrap;html=1;aspect=fixed;" vertex="1" parent="1">
          <mxGeometry x="200" y="160" width="80" height="80" as="geometry" />
        </mxCell>
        <mxCell id="pc25XRSb5LT2gWaU4bw4-72" value="" style="ellipse;whiteSpace=wrap;html=1;aspect=fixed;" vertex="1" parent="1">
          <mxGeometry x="40" y="160" width="80" height="80" as="geometry" />
        </mxCell>
        <mxCell id="pc25XRSb5LT2gWaU4bw4-73" value="" style="endArrow=classic;html=1;rounded=0;entryX=0;entryY=0.5;entryDx=0;entryDy=0;exitX=1;exitY=0.5;exitDx=0;exitDy=0;" edge="1" parent="1" source="pc25XRSb5LT2gWaU4bw4-83" target="pc25XRSb5LT2gWaU4bw4-72">
          <mxGeometry width="50" height="50" relative="1" as="geometry">
            <mxPoint y="200" as="sourcePoint" />
            <mxPoint x="80" y="200" as="targetPoint" />
          </mxGeometry>
        </mxCell>
        <mxCell id="pc25XRSb5LT2gWaU4bw4-74" value="" style="endArrow=classic;html=1;rounded=0;entryX=0;entryY=0.5;entryDx=0;entryDy=0;exitX=1;exitY=0.5;exitDx=0;exitDy=0;" edge="1" parent="1" source="pc25XRSb5LT2gWaU4bw4-72" target="pc25XRSb5LT2gWaU4bw4-71">
          <mxGeometry width="50" height="50" relative="1" as="geometry">
            <mxPoint x="130" y="230" as="sourcePoint" />
            <mxPoint x="250" y="230" as="targetPoint" />
          </mxGeometry>
        </mxCell>
        <mxCell id="pc25XRSb5LT2gWaU4bw4-75" value="&lt;b style=&quot;font-size: 15px;&quot;&gt;S45&lt;/b&gt;" style="text;html=1;strokeColor=none;fillColor=none;align=center;verticalAlign=middle;whiteSpace=wrap;rounded=0;fontSize=15;" vertex="1" parent="1">
          <mxGeometry x="50" y="185" width="60" height="30" as="geometry" />
        </mxCell>
        <mxCell id="pc25XRSb5LT2gWaU4bw4-76" value="&lt;b&gt;&lt;font style=&quot;font-size: 15px;&quot;&gt;S46&lt;/font&gt;&lt;/b&gt;" style="text;html=1;strokeColor=none;fillColor=none;align=center;verticalAlign=middle;whiteSpace=wrap;rounded=0;" vertex="1" parent="1">
          <mxGeometry x="210" y="185" width="60" height="30" as="geometry" />
        </mxCell>
        <mxCell id="pc25XRSb5LT2gWaU4bw4-77" value="U" style="text;html=1;strokeColor=none;fillColor=none;align=center;verticalAlign=middle;whiteSpace=wrap;rounded=0;fontSize=15;" vertex="1" parent="1">
          <mxGeometry x="110" y="167.5" width="105" height="30" as="geometry" />
        </mxCell>
        <mxCell id="pc25XRSb5LT2gWaU4bw4-78" value="" style="ellipse;whiteSpace=wrap;html=1;aspect=fixed;" vertex="1" parent="1">
          <mxGeometry x="360" y="160" width="80" height="80" as="geometry" />
        </mxCell>
        <mxCell id="pc25XRSb5LT2gWaU4bw4-79" value="" style="ellipse;whiteSpace=wrap;html=1;aspect=fixed;" vertex="1" parent="1">
          <mxGeometry x="367.5" y="167.5" width="65" height="65" as="geometry" />
        </mxCell>
        <mxCell id="pc25XRSb5LT2gWaU4bw4-80" value="" style="endArrow=classic;html=1;rounded=0;entryX=0;entryY=0.5;entryDx=0;entryDy=0;exitX=1;exitY=0.5;exitDx=0;exitDy=0;" edge="1" parent="1" target="pc25XRSb5LT2gWaU4bw4-78">
          <mxGeometry width="50" height="50" relative="1" as="geometry">
            <mxPoint x="280" y="200" as="sourcePoint" />
            <mxPoint x="410" y="230" as="targetPoint" />
          </mxGeometry>
        </mxCell>
        <mxCell id="pc25XRSb5LT2gWaU4bw4-81" value="&lt;b&gt;&lt;font style=&quot;font-size: 15px;&quot;&gt;S47&lt;/font&gt;&lt;/b&gt;" style="text;html=1;strokeColor=none;fillColor=none;align=center;verticalAlign=middle;whiteSpace=wrap;rounded=0;" vertex="1" parent="1">
          <mxGeometry x="370" y="185" width="60" height="30" as="geometry" />
        </mxCell>
        <mxCell id="pc25XRSb5LT2gWaU4bw4-82" value="T" style="text;html=1;strokeColor=none;fillColor=none;align=center;verticalAlign=middle;whiteSpace=wrap;rounded=0;fontSize=15;" vertex="1" parent="1">
          <mxGeometry x="270" y="167.5" width="105" height="30" as="geometry" />
        </mxCell>
        <mxCell id="pc25XRSb5LT2gWaU4bw4-83" value="" style="ellipse;whiteSpace=wrap;html=1;aspect=fixed;" vertex="1" parent="1">
          <mxGeometry x="-120" y="160" width="80" height="80" as="geometry" />
        </mxCell>
        <mxCell id="pc25XRSb5LT2gWaU4bw4-84" value="" style="endArrow=classic;html=1;rounded=0;" edge="1" parent="1">
          <mxGeometry width="50" height="50" relative="1" as="geometry">
            <mxPoint x="-200" y="200" as="sourcePoint" />
            <mxPoint x="-120" y="200" as="targetPoint" />
          </mxGeometry>
        </mxCell>
        <mxCell id="pc25XRSb5LT2gWaU4bw4-85" value="&lt;b style=&quot;font-size: 15px;&quot;&gt;S44&lt;/b&gt;" style="text;html=1;strokeColor=none;fillColor=none;align=center;verticalAlign=middle;whiteSpace=wrap;rounded=0;fontSize=15;" vertex="1" parent="1">
          <mxGeometry x="-110" y="185" width="60" height="30" as="geometry" />
        </mxCell>
        <mxCell id="pc25XRSb5LT2gWaU4bw4-86" value="P" style="text;html=1;strokeColor=none;fillColor=none;align=center;verticalAlign=middle;whiteSpace=wrap;rounded=0;fontSize=15;" vertex="1" parent="1">
          <mxGeometry x="-50" y="167.5" width="105" height="30" as="geometry" />
        </mxCell>
        <mxCell id="pc25XRSb5LT2gWaU4bw4-87" value="" style="ellipse;whiteSpace=wrap;html=1;aspect=fixed;" vertex="1" parent="1">
          <mxGeometry x="-280" y="160" width="80" height="80" as="geometry" />
        </mxCell>
        <mxCell id="pc25XRSb5LT2gWaU4bw4-88" value="&lt;b style=&quot;font-size: 15px;&quot;&gt;S43&lt;/b&gt;" style="text;html=1;strokeColor=none;fillColor=none;align=center;verticalAlign=middle;whiteSpace=wrap;rounded=0;fontSize=15;" vertex="1" parent="1">
          <mxGeometry x="-270" y="185" width="60" height="30" as="geometry" />
        </mxCell>
        <mxCell id="pc25XRSb5LT2gWaU4bw4-89" value="T" style="text;html=1;strokeColor=none;fillColor=none;align=center;verticalAlign=middle;whiteSpace=wrap;rounded=0;fontSize=15;" vertex="1" parent="1">
          <mxGeometry x="-210" y="167.5" width="105" height="30" as="geometry" />
        </mxCell>
        <mxCell id="pc25XRSb5LT2gWaU4bw4-90" value="" style="endArrow=classic;html=1;rounded=0;" edge="1" parent="1">
          <mxGeometry width="50" height="50" relative="1" as="geometry">
            <mxPoint x="-360" y="200" as="sourcePoint" />
            <mxPoint x="-280" y="200" as="targetPoint" />
          </mxGeometry>
        </mxCell>
        <mxCell id="pc25XRSb5LT2gWaU4bw4-91" value="" style="ellipse;whiteSpace=wrap;html=1;aspect=fixed;" vertex="1" parent="1">
          <mxGeometry x="-440" y="160" width="80" height="80" as="geometry" />
        </mxCell>
        <mxCell id="pc25XRSb5LT2gWaU4bw4-93" value="&lt;b style=&quot;font-size: 15px;&quot;&gt;S42&lt;/b&gt;" style="text;html=1;strokeColor=none;fillColor=none;align=center;verticalAlign=middle;whiteSpace=wrap;rounded=0;fontSize=15;" vertex="1" parent="1">
          <mxGeometry x="-430" y="185" width="60" height="30" as="geometry" />
        </mxCell>
        <mxCell id="pc25XRSb5LT2gWaU4bw4-94" value="U" style="text;html=1;strokeColor=none;fillColor=none;align=center;verticalAlign=middle;whiteSpace=wrap;rounded=0;fontSize=15;" vertex="1" parent="1">
          <mxGeometry x="-370" y="167.5" width="105" height="30" as="geometry" />
        </mxCell>
        <mxCell id="pc25XRSb5LT2gWaU4bw4-95" value="" style="endArrow=classic;html=1;rounded=0;" edge="1" parent="1">
          <mxGeometry width="50" height="50" relative="1" as="geometry">
            <mxPoint x="-520" y="200" as="sourcePoint" />
            <mxPoint x="-440" y="200" as="targetPoint" />
          </mxGeometry>
        </mxCell>
        <mxCell id="pc25XRSb5LT2gWaU4bw4-96" value="" style="ellipse;whiteSpace=wrap;html=1;aspect=fixed;" vertex="1" parent="1">
          <mxGeometry x="-600" y="160" width="80" height="80" as="geometry" />
        </mxCell>
        <mxCell id="pc25XRSb5LT2gWaU4bw4-97" value="" style="endArrow=classic;html=1;rounded=0;entryX=0;entryY=0.5;entryDx=0;entryDy=0;" edge="1" parent="1">
          <mxGeometry width="50" height="50" relative="1" as="geometry">
            <mxPoint x="-680" y="200" as="sourcePoint" />
            <mxPoint x="-600" y="200" as="targetPoint" />
          </mxGeometry>
        </mxCell>
        <mxCell id="pc25XRSb5LT2gWaU4bw4-98" value="&lt;b style=&quot;font-size: 15px;&quot;&gt;S0&lt;/b&gt;" style="text;html=1;strokeColor=none;fillColor=none;align=center;verticalAlign=middle;whiteSpace=wrap;rounded=0;fontSize=15;" vertex="1" parent="1">
          <mxGeometry x="-590" y="185" width="60" height="30" as="geometry" />
        </mxCell>
        <mxCell id="pc25XRSb5LT2gWaU4bw4-99" value="O" style="text;html=1;strokeColor=none;fillColor=none;align=center;verticalAlign=middle;whiteSpace=wrap;rounded=0;fontSize=15;" vertex="1" parent="1">
          <mxGeometry x="-530" y="167.5" width="105" height="30" as="geometry" />
        </mxCell>
      </root>
    </mxGraphModel>
  </diagram>
</mxfile>
